<?xml version="1.0" encoding="UTF-8"?>
<svg width="512" height="512" viewBox="0 0 512 512" fill="none" xmlns="http://www.w3.org/2000/svg">
  <rect width="512" height="512" rx="128" fill="#18181B"/>
  <path d="M256 128C176.5 128 112 192.5 112 272C112 351.5 176.5 416 256 416C335.5 416 400 351.5 400 272C400 192.5 335.5 128 256 128ZM256 384C194.1 384 144 333.9 144 272C144 210.1 194.1 160 256 160C317.9 160 368 210.1 368 272C368 333.9 317.9 384 256 384Z" fill="white"/>
  <path d="M256 208C229.5 208 208 229.5 208 256C208 282.5 229.5 304 256 304C282.5 304 304 282.5 304 256C304 229.5 282.5 208 256 208Z" fill="white"/>
</svg> 